Coordinates
version=1
nRows=32
nColumns=22
inDegrees=yes

Units are S.I. units (second, meters, Newtons, ...)
If the header above contains a line with 'inDegrees', this indicates whether rotational values are in degrees (yes) or radians (no).

endheader
time	pelvis_tilt	pelvis_list	pelvis_rotation	pelvis_tx	pelvis_ty	pelvis_tz	hip_flexion_r	hip_adduction_r	hip_rotation_r	knee_angle_r	ankle_angle_r	subtalar_angle_r	hip_flexion_l	hip_adduction_l	hip_rotation_l	knee_angle_l	ankle_angle_l	subtalar_angle_l	lumbar_extension	lumbar_bending	lumbar_rotation
      1.39000000	     -9.83453846	     -0.84202043	     -2.59921476	     -1.03638217	      0.88119013	     -0.59100179	     11.65232111	     -4.68196089	      5.23402046	    -11.41379902	     14.05933416	      3.40274797	     11.46691471	     -1.51518702	     -6.49096714	    -16.66306021	     17.92115616	      0.83893470	      5.99291136	      0.63631529	     12.57017530
      1.40000000	     -9.68443023	     -0.70876943	     -2.45721109	     -1.03592956	      0.88090026	     -0.59353991	     12.16072160	     -4.97608342	      5.31339578	    -12.73379586	     14.50811634	      3.70371675	     11.32700985	     -1.14154277	     -6.22812628	    -16.74358293	     18.16899860	      0.52601212	      5.81750722	      0.45865904	     12.84467396
      1.41000000	     -9.50743163	     -0.52172788	     -2.33389502	     -1.03547906	      0.88061441	     -0.59608726	     12.75012754	     -5.31694100	      5.46610687	    -14.23967834	     14.92422003	      3.92214084	     11.11811941	     -0.71310886	     -6.01375498	    -16.74946130	     18.37281902	      0.39179584	      5.60712611	      0.21008000	     13.11571010
      1.42000000	     -9.32471277	     -0.33449946	     -2.21891663	     -1.03509251	      0.88029550	     -0.59865033	     13.44501333	     -5.64695776	      5.68104700	    -15.93646954	     15.29986250	      4.26500061	     10.89601376	     -0.29091604	     -5.84318226	    -16.73777101	     18.60124089	      0.25377035	      5.37396377	     -0.04370849	     13.37446395
      1.43000000	     -9.09514897	     -0.10979178	     -2.10490205	     -1.03470165	      0.88004012	     -0.60121785	     14.18791287	     -6.00509055	      5.95175340	    -17.80575157	     15.58389893	      4.48018535	     10.59923361	      0.16838278	     -5.69461188	    -16.68042439	     18.76419087	      0.24360312	      5.07873201	     -0.35463453	     13.62420781
      1.44000000	     -8.89565969	      0.09356855	     -1.98797041	     -1.03435174	      0.87973175	     -0.60377681	     15.07088843	     -6.32442955	      6.28450872	    -19.86811644	     15.74224645	      4.98852527	     10.32798719	      0.59429286	     -5.58462225	    -16.60567534	     18.96412381	      0.20506613	      4.80683127	     -0.64607859	     13.81262021
      1.45000000	     -8.63071651	      0.31066040	     -1.85238939	     -1.03396403	      0.87956003	     -0.60633682	     15.96533650	     -6.64398496	      6.64130273	    -22.08164494	     15.75555948	      5.27343564	      9.95562490	      1.03614250	     -5.46451626	    -16.47299562	     19.06987488	      0.26766903	      4.44843468	     -0.96887713	     13.97206010
      1.46000000	     -8.38472574	      0.49687689	     -1.69748046	     -1.03356163	      0.87939685	     -0.60887807	     16.96848162	     -6.91245097	      7.01240117	    -24.45738779	     15.57089208	      5.76809017	      9.58650322	      1.43722508	     -5.36995866	    -16.30746028	     19.19905782	      0.35440954	      4.10166351	     -1.26423110	     14.04719647
      1.47000000	     -8.10293679	      0.66037582	     -1.50354152	     -1.03315561	      0.87933569	     -0.61142001	     17.99989353	     -7.14287176	      7.38520704	    -26.95344308	     15.20870174	      6.29852300	      9.17878578	      1.81182328	     -5.24937708	    -16.14365053	     19.32691505	      0.48935981	      3.69284557	     -1.54587441	     14.06165611
      1.48000000	     -7.77923032	      0.80559944	     -1.28344138	     -1.03266079	      0.87941137	     -0.61392105	     19.04685354	     -7.33261457	      7.73623137	    -29.55793430	     14.67552410	      6.58264753	      8.68102351	      2.16411326	     -5.11793362	    -15.90380909	     19.38588356	      0.63579769	      3.22664818	     -1.81763248	     14.00731142
      1.49000000	     -7.50788843	      0.89233811	     -1.04477895	     -1.03213775	      0.87947432	     -0.61635662	     20.20245330	     -7.43326217	      8.09263345	    -32.23663648	     13.89974974	      7.20281442	      8.23127316	      2.43823483	     -5.02238525	    -15.65795811	     19.47908669	      0.86378836	      2.80921321	     -2.02608112	     13.87811362
      1.50000000	     -7.17139542	      0.96699200	     -0.77292599	     -1.03149207	      0.87972126	     -0.61876590	     21.30519322	     -7.50092735	      8.42108822	    -34.93356747	     12.98997866	      7.43066561	      7.65942449	      2.70071145	     -4.87614916	    -15.32999440	     19.48759131	      1.04350913	      2.30723974	     -2.22784277	     13.68609505
      1.51000000	     -6.85418305	      0.99470731	     -0.47838901	     -1.03073292	      0.87999979	     -0.62111289	     22.43272578	     -7.49457021	      8.72938829	    -37.61093705	     11.96253417	      7.69497026	      7.08578897	      2.89941313	     -4.74322961	    -14.98065312	     19.50738057	      1.26872661	      1.82558422	     -2.37745662	     13.43098553
      1.52000000	     -6.52732458	      0.98084296	     -0.15112698	     -1.02982946	      0.88035631	     -0.62344333	     23.52334127	     -7.43170205	      8.99061978	    -40.21199554	     10.89742168	      7.87727502	      6.47051815	      3.04642125	     -4.59819966	    -14.59179700	     19.52591279	      1.52525428	      1.33126745	     -2.47600957	     13.10639431
      1.53000000	     -6.19024874	      0.93334582	      0.20782835	     -1.02872458	      0.88078706	     -0.62574438	     24.55343135	     -7.32361658	      9.19436312	    -42.69332286	      9.87239824	      7.91239957	      5.80851504	      3.14870247	     -4.43219070	    -14.16369026	     19.53429223	      1.79841865	      0.83367806	     -2.53276678	     12.71578109
      1.54000000	     -5.85361720	      0.87031379	      0.59914872	     -1.02742135	      0.88126066	     -0.62802649	     25.52712562	     -7.19746624	      9.32962386	    -45.02977988	      8.99936942	      7.77529109	      5.10838040	      3.22573431	     -4.24636311	    -13.68514839	     19.52199311	      2.13033174	      0.34578499	     -2.56773304	     12.26727567
      1.55000000	     -5.51612556	      0.78851939	      1.02809422	     -1.02592280	      0.88177930	     -0.63030684	     26.42419143	     -7.05607200	      9.38712764	    -47.17831821	      8.32280352	      7.43046481	      4.37802291	      3.27439374	     -4.01700440	    -13.17255521	     19.47719781	      2.49935879	     -0.13277548	     -2.57193938	     11.75879028
      1.56000000	     -5.16670151	      0.66649649	      1.47958550	     -1.02420909	      0.88233031	     -0.63254499	     27.22445065	     -6.87644640	      9.34833018	    -49.11264322	      7.92488562	      6.67969170	      3.61796724	      3.26427736	     -3.77526228	    -12.65465459	     19.49413231	      2.99557624	     -0.61076580	     -2.52191797	     11.24556076
      1.57000000	     -4.85696699	      0.52717735	      1.96422844	     -1.02234148	      0.88286977	     -0.63476331	     27.97687332	     -6.67942654	      9.25620510	    -50.79959226	      7.71431644	      5.89288595	      2.89449966	      3.22597909	     -3.49688893	    -12.13471167	     19.44208809	      3.38685140	     -1.03241121	     -2.44299227	     10.65550608
      1.58000000	     -4.58163923	      0.36877583	      2.47830445	     -1.02030150	      0.88337340	     -0.63696163	     28.67464775	     -6.47680689	      9.07959537	    -52.22655077	      7.71009167	      5.06356918	      2.20256740	      3.15664758	     -3.17208641	    -11.61901669	     19.37442348	      3.75504742	     -1.40046910	     -2.33454584	     10.05011929
      1.59000000	     -4.34855490	      0.18535660	      3.01575274	     -1.01814664	      0.88383252	     -0.63911296	     29.32094901	     -6.25140767	      8.85237951	    -53.36495955	      7.83285609	      4.29061524	      1.57161504	      3.04728776	     -2.80986484	    -11.13790058	     19.30547202	      4.08867465	     -1.71435016	     -2.19371816	      9.42197169
      1.60000000	     -4.16312875	     -0.02826349	      3.56997978	     -1.01588238	      0.88423386	     -0.64120796	     29.91640980	     -5.99484366	      8.58607199	    -54.19518972	      8.00651393	      3.66403582	      1.01661510	      2.89394865	     -2.41079904	    -10.70684605	     19.23981426	      4.38309294	     -1.96573203	     -2.01612012	      8.79061506
      1.61000000	     -4.02236081	     -0.27249151	      4.13453977	     -1.01354101	      0.88458303	     -0.64322279	     30.45733942	     -5.70237026	      8.29876137	    -54.70339755	      8.16846868	      3.26731966	      0.54733284	      2.69457769	     -1.98549182	    -10.34511353	     19.17921643	      4.63192316	     -2.16309850	     -1.80596195	      8.15643653
      1.62000000	     -3.94459554	     -0.53565129	      4.70018079	     -1.01114778	      0.88484394	     -0.64516081	     30.97062200	     -5.38304668	      8.01868034	    -54.89275286	      8.25937837	      3.19835239	      0.19464887	      2.46850136	     -1.54060744	    -10.07152470	     19.11368637	      4.77363440	     -2.28842212	     -1.57889204	      7.53391134
      1.63000000	     -3.88289995	     -0.83004458	      5.24655093	     -1.00868648	      0.88507496	     -0.64697571	     31.40394696	     -5.01111650	      7.75418865	    -54.75771956	      8.27559825	      3.25702316	     -0.09854607	      2.19657632	     -1.10290029	     -9.87384964	     19.08718842	      4.91717644	     -2.39473818	     -1.32196759	      6.95758119
      1.64000000	     -3.84049712	     -1.14119072	      5.77329908	     -1.00617839	      0.88526065	     -0.64868712	     31.76805362	     -4.60766258	      7.51714794	    -54.31066134	      8.19403994	      3.53477768	     -0.31954798	      1.89914945	     -0.68165422	     -9.76802973	     19.09858899	      5.05027651	     -2.48368536	     -1.04980834	      6.42197112
      1.65000000	     -3.81485897	     -1.45309275	      6.24471267	     -1.00363595	      0.88538402	     -0.65021868	     32.07734760	     -4.16470695	      7.36881397	    -53.58050457	      8.03532701	      4.23921099	     -0.48395735	      1.59268836	     -0.28576127	     -9.73608169	     19.12125672	      5.18522969	     -2.56527761	     -0.78919693	      5.97974299
      1.66000000	     -3.81903708	     -1.74646866	      6.68779457	     -1.00103314	      0.88541323	     -0.65166993	     32.35428251	     -3.74147702	      7.25065245	    -52.59832046	      7.73933651	      5.02568193	     -0.58488807	      1.30712755	      0.07393183	     -9.76716584	     19.16573649	      5.22437735	     -2.62241164	     -0.55304623	      5.56754727
      1.67000000	     -3.81721342	     -2.03005358	      7.09425994	     -0.99835948	      0.88539449	     -0.65301719	     32.55520476	     -3.31835131	      7.17599149	    -51.37077448	      7.37408520	      5.86140478	     -0.65875736	      1.02915006	      0.42616203	     -9.87201739	     19.23837131	      5.21941685	     -2.69800049	     -0.33202853	      5.22964149
      1.68000000	     -3.80885781	     -2.30083744	      7.46807942	     -0.99556558	      0.88531981	     -0.65427848	     32.68225725	     -2.90670826	      7.13818483	    -49.92365664	      6.94411637	      6.71012812	     -0.73123324	      0.76087937	      0.75369662	    -10.00841978	     19.33732606	      5.17670680	     -2.78851034	     -0.12731162	      4.94822526
      1.69000000	     -3.78504879	     -2.58195706	      7.82612323	     -0.99263319	      0.88519552	     -0.65547687	     32.72071636	     -2.49519211	      7.09368046	    -48.26509252	      6.49395393	      7.28252827	     -0.79428480	      0.47657784	      1.06338292	    -10.20864165	     19.50021479	      5.10299304	     -2.89928817	      0.08978267	      4.70308461
      1.70000000	     -3.72877541	     -2.80215624	      8.12201198	     -0.98953198	      0.88507353	     -0.65660818	     32.66734723	     -2.13756702	      7.11827407	    -46.43522084	      5.98005471	      8.13256991	     -0.93186837	      0.25565703	      1.34381683	    -10.37567014	     19.56876635	      4.98224262	     -3.05907698	      0.24561340	      4.55227095
